<svg id="Layer_1" height="512" viewBox="0 0 32 32" width="512" xmlns="http://www.w3.org/2000/svg"><g id="style_4_copy_3"><g><circle cx="16" cy="16" fill="#3a3a3a" r="16"/></g></g><g id="style_4_copy_2"><path d="m16 5.56c-5.8 0-10.5 4.68-10.5 10.46 0 5.61 4.44 10.18 10 10.44.07.05.13.09.14.1l.06-.09c.1 0 .19.01.29.01.09 0 .18-.01.28-.01l.06.09c.02-.01.07-.05.14-.1 5.58-.25 10.02-4.82 10.02-10.44.01-5.78-4.69-10.46-10.49-10.46zm-.66 7.02v2.78h-3.34c.05-1.19.24-2.23.51-3.15.85.19 1.79.33 2.83.37zm1.32.01c1.04-.03 1.98-.16 2.81-.34.27.91.46 1.94.51 3.11h-3.32zm0-1.32v-3.68c.7.66 1.65 1.75 2.35 3.37-.71.16-1.49.27-2.35.31zm-1.32-3.7v3.7c-.86-.05-1.65-.17-2.36-.33.71-1.63 1.66-2.72 2.36-3.37zm-4.08 4.29c-.3 1.02-.51 2.18-.56 3.49h-3.85c.13-1.75.75-3.36 1.72-4.7.5.31 1.41.8 2.69 1.21zm-.56 4.81c.05 1.27.24 2.4.53 3.4-1.31.43-2.23.93-2.71 1.23-.95-1.33-1.55-2.92-1.67-4.63zm1.31 0h3.34v2.68c-1.06.04-2.01.18-2.86.38-.26-.9-.43-1.92-.48-3.06zm3.33 3.99v3.95c-.73-.71-1.71-1.9-2.43-3.64.73-.15 1.54-.27 2.43-.31zm1.32 3.94v-3.94c.89.04 1.69.16 2.41.32-.71 1.72-1.68 2.9-2.41 3.62zm0-5.25v-2.68h3.32c-.05 1.14-.22 2.15-.48 3.05-.84-.19-1.79-.33-2.84-.37zm4.63-2.68h3.87c-.12 1.72-.72 3.32-1.68 4.65-.47-.3-1.4-.81-2.72-1.24.29-1.01.48-2.14.53-3.41zm0-1.31c-.05-1.3-.25-2.45-.55-3.46 1.3-.42 2.2-.93 2.69-1.25.98 1.34 1.6 2.95 1.73 4.7h-3.87zm1.27-5.73c-.45.26-1.23.66-2.27.99-.65-1.57-1.51-2.72-2.26-3.52 1.75.4 3.32 1.29 4.53 2.53zm-8.61-2.52c-.75.79-1.59 1.94-2.24 3.48-1.02-.33-1.8-.7-2.27-.96 1.21-1.24 2.76-2.12 4.51-2.52zm-4.59 15.22c.44-.26 1.22-.66 2.28-1.01.62 1.55 1.43 2.73 2.17 3.57-1.72-.41-3.26-1.32-4.45-2.56zm8.81 2.57c.74-.84 1.55-2.02 2.17-3.58 1.08.35 1.85.76 2.29 1.02-1.2 1.24-2.73 2.14-4.46 2.56z" fill="#fff"/></g></svg>